<svg xmlns="http://www.w3.org/2000/svg" aria-hidden="true" style="position:absolute;width:0;height:0;overflow:hidden"><defs><symbol id="icon-loupe" viewBox="0 0 32 32"><path d="M14.093 0C6.32 0 0 6.321 0 14.093c0 7.769 6.321 14.091 14.093 14.091 7.769 0 14.091-6.32 14.091-14.092C28.184 6.321 21.864 0 14.093 0zm0 25.583c-6.337 0-11.492-5.155-11.492-11.491S7.756 2.601 14.092 2.601c6.336 0 11.491 5.155 11.491 11.491s-5.155 11.491-11.491 11.491z"/><path d="m31.619 29.78-7.457-7.459a1.3 1.3 0 1 0-1.84 1.84l7.459 7.457c.235.237.56.383.92.383s.685-.146.92-.383a1.299 1.299 0 0 0 .001-1.84z"/></symbol><symbol id="icon-person" viewBox="0 0 26 32"><path stroke-width=".427" d="M16.157 13.312c2.019.652 3.845 1.894 5.321 3.648 2.285 2.716 3.536 6.461 3.536 10.54a.714.714 0 0 1-.343.61l-.003.002c-.221.132-5.246 3.101-11.867 3.101-6.114 0-11.606-2.959-11.841-3.087l15.198-14.813zm0 0c2.021-1.182 3.357-3.342 3.357-5.814a6.714 6.714 0 1 0-10.103 5.797l.032.017h6.714zM7.514 7.501a5.286 5.286 0 1 1 10.572 0 5.286 5.286 0 1 1-10.572 0zm-2.3 10.378c1.993-2.368 4.687-3.665 7.586-3.665s5.594 1.297 7.586 3.665c1.982 2.355 3.115 5.609 3.196 9.203-1.232.653-5.53 2.705-10.782 2.705-4.858 0-9.453-2.068-10.782-2.721.085-3.588 1.216-6.835 3.196-9.187z"/></symbol><symbol id="icon-shopping-cart" viewBox="0 0 32 32"><path d="M10.31 20.688h17.002a.937.937 0 0 0 .902-.681l3.749-13.125a.938.938 0 0 0-.901-1.195H8.149l-.672-3.015a.94.94 0 0 0-.915-.735H.938a.938.938 0 0 0 0 1.876h4.873l3.386 15.232a2.82 2.82 0 0 0-1.696 2.581 2.816 2.816 0 0 0 2.813 2.812h17.001a.938.938 0 0 0 0-1.876H10.312a.94.94 0 0 1-.004-1.875h.002zM29.82 7.563l-3.215 11.25H11.064L8.566 7.563h21.255zM9.376 27.25a2.817 2.817 0 0 0 2.812 2.813A2.816 2.816 0 0 0 15 27.25a2.817 2.817 0 0 0-2.812-2.813 2.816 2.816 0 0 0-2.813 2.813zm2.812-.937a.94.94 0 0 1 .002 1.876h-.002a.94.94 0 0 1-.002-1.876h.002zm10.436.937a2.817 2.817 0 0 0 2.814 2.813 2.816 2.816 0 0 0 2.812-2.813 2.817 2.817 0 0 0-2.811-2.813 2.816 2.816 0 0 0-2.813 2.813zm2.814-.937a.94.94 0 0 1 .002 1.876h-.002a.94.94 0 0 1-.002-1.876h.002z"/></symbol><symbol id="icon-telescope" viewBox="0 0 32 32"><path d="M30.269 4.869a4.167 4.167 0 0 0-2.824-2.023l-.026-.004-.319-1.319a.438.438 0 0 0-.533-.322l.003-.001-2.45.593a.438.438 0 0 0-.321.531l-.001-.003.233.965L7.775 7.222a.438.438 0 0 0-.321.531l-.001-.003.157.647-2.952.715a.438.438 0 0 0-.322.531l-.001-.003.231.955-3.044.737a.438.438 0 0 0-.321.532l-.001-.003.563 2.322a.438.438 0 0 0 .531.322l-.003.001 3.044-.737.23.952a.438.438 0 0 0 .532.321l-.003.001 2.952-.715.157.648a.438.438 0 0 0 .53.321l-.003.001 4.373-1.06c.053.251.155.489.3.7L7.438 29.101a1.188 1.188 0 0 0 1.065 1.711 1.193 1.193 0 0 0 1.062-.658l.003-.007 5.245-10.667v10.143a1.188 1.188 0 0 0 2.376 0V19.48l5.245 10.667a1.187 1.187 0 1 0 2.128-1.053l.003.007L17.6 14.936a1.92 1.92 0 0 0 .264-1.623l.003.014 8.12-1.969.235.966a.438.438 0 0 0 .53.321l-.003.001 2.45-.593a.438.438 0 0 0 .321-.532l.001.003-.319-1.318a4.16 4.16 0 0 0 1.056-5.358l.011.02zM2.511 13.552l-.357-1.472 2.619-.634.357 1.472-2.619.633zm3.803.537-.228-.941c0-.004 0-.007-.002-.011l-.003-.009v-.001l-.558-2.302v-.009l-.003-.009-.229-.946 2.527-.611 1.025 4.229-2.529.611zm10.576-.824a1.053 1.053 0 0 1-.136 1.327l-.002.003a1.056 1.056 0 0 1-1.502 0l-.002-.003a1.063 1.063 0 0 1 1.333-1.638l-.004-.003c.125.081.231.187.312.312l.001.001zM8.783 29.762a.312.312 0 0 1-.558-.276l-.001.002 6.59-13.403v1.413l-6.03 12.263zm7.218.175a.313.313 0 0 1-.312-.313V15.753c.207.037.418.037.625 0v13.872c0 .173-.14.313-.313.313v-.001zm7.794-.212a.318.318 0 0 1-.159.18l-.002.001a.317.317 0 0 1-.414-.143l-.001-.002-6.03-12.263v-1.413l6.591 13.403a.303.303 0 0 1 .014.239l.001-.002zm-7.794-17.819a1.938 1.938 0 0 0-1.863 1.412l-.003.014-4.185 1.013L8.563 8.62v-.004l-.156-.645 15.831-3.834 1.543 6.372-8.356 2.025a1.927 1.927 0 0 0-1.424-.628zm10.968-.213-1.98-8.175c0-.004 0-.009-.002-.013l-.004-.012-.231-.95 1.6-.387 2.217 9.152-1.6.387zm.682-7.89a3.282 3.282 0 0 1 2.288 3.122c0 .909-.37 1.731-.968 2.324l-1.32-5.447z"/><path d="m19.259 5.985-3.36.815a.438.438 0 1 0 .209.849l-.003.001 3.36-.814a.437.437 0 0 0-.031-.861h-.002a.468.468 0 0 0-.176.012l.003-.001zm3.254-.338a.436.436 0 0 0-.531-.322l.003-.001-1 .243a.437.437 0 1 0 .21.848l.995-.241a.438.438 0 0 0 .324-.529l.001.003z"/></symbol><symbol id="icon-wholesale" viewBox="0 0 32 32"><path d="M31.065 8.059 17.316.342C16.94.127 16.489 0 16.009 0s-.931.127-1.32.349l.013-.007L.952 8.06a1.6 1.6 0 0 0 .779 2.997h.011-.001c.273 0 .542-.071.779-.208L16.008 3.28l13.488 7.568a1.601 1.601 0 1 0 1.577-2.785l-.009-.004zm-.32 1.659a.533.533 0 0 1-.728.201l.003.001-13.477-7.574a1.057 1.057 0 0 0-1.071.003l.005-.003L2.001 9.92a.538.538 0 0 1-.535-.932l.002-.001 13.76-7.717a1.597 1.597 0 0 1 1.576.004l-.008-.004 13.749 7.717a.534.534 0 0 1 .202.733l.001-.003zM3.21 11.985a.533.533 0 0 0-.533.533v18.949a.533.533 0 1 0 1.066 0V12.518a.533.533 0 0 0-.533-.533zm25.599 0a.533.533 0 0 0-.533.533v18.949a.533.533 0 1 0 1.066 0V12.518a.533.533 0 0 0-.533-.533zm-2.133-.785H5.343a.533.533 0 0 0-.533.533v19.733a.533.533 0 1 0 1.066 0V14.399h20.267v17.067a.533.533 0 1 0 1.066 0V11.733a.533.533 0 0 0-.533-.533zm-20.8 2.133v-1.067h20.267v1.067H5.876z"/><path d="M20.276 8.001a.533.533 0 1 0 0-1.066h-8.533a.533.533 0 0 0-.533.533v2.133c0 .295.239.533.533.533h8.533a.533.533 0 1 0 0-1.066h-8V8.001h8zM24.543 28.8h-.533v-5.867a.533.533 0 0 0-.533-.533h-1.6v-5.867a.533.533 0 0 0-.533-.533h-7.467a.533.533 0 0 0-.533.533V19.2h-2.667a.533.533 0 0 0-.533.533V22.4h-1.6a.533.533 0 0 0-.533.533V28.8h-.533a.533.533 0 0 0-.533.533v2.133a.533.533 0 1 0 1.066 0v-1.6h1.6v1.6a.533.533 0 1 0 1.066 0v-1.6h1.067v1.6a.533.533 0 1 0 1.066 0v-1.6h1.6v1.6a.533.533 0 1 0 1.066 0v-1.6h1.067v1.6a.533.533 0 1 0 1.066 0v-1.6h1.6v1.6a.533.533 0 1 0 1.066 0v-1.6h1.067v1.6a.533.533 0 1 0 1.066 0v-1.6h1.6v1.6a.533.533 0 1 0 1.066 0v-2.133a.533.533 0 0 0-.533-.533zm-5.334-5.333h1.067v1.067h-1.067v-1.067zm-1.066-6.4v1.067h-1.067v-1.067h1.067zm-3.734 0h1.6v1.6c0 .295.239.533.533.533h2.133a.533.533 0 0 0 .533-.533v-1.6h1.6V22.4h-6.4v-5.333zm-2.666 6.4h1.067v1.067h-1.067v-1.067zm-.534-3.2h2.133V22.4h-2.133v-2.133zM9.076 28.8v-5.333h1.6v1.6c0 .295.239.533.533.533h2.133a.533.533 0 0 0 .533-.533v-1.6h1.6V28.8h-6.4zm7.467 0v-5.333h1.6v1.6c0 .295.239.533.533.533h2.133a.533.533 0 0 0 .533-.533v-1.6h1.6V28.8h-6.4z"/></symbol><symbol id="icon-support" viewBox="0 0 32 32"><path d="M15.944 4.067a.629.629 0 0 0 .629-.629V.63a.629.629 0 1 0-1.258 0v2.807c0 .348.282.629.629.629zM31.33 21.624l-1.112-1.109a2.08 2.08 0 0 0-1.478-.613h-.011c-.369 0-.715.095-1.016.263l.011-.005-2.095-2.093.102-.101c.394-.395.637-.94.637-1.542s-.244-1.147-.637-1.542a2.155 2.155 0 0 0-1.082-.59l-.014-.002a2.194 2.194 0 0 0-.551-2.155 2.156 2.156 0 0 0-1.081-.59l-.014-.002a2.192 2.192 0 0 0-.552-2.155 2.165 2.165 0 0 0-1.08-.588l-.014-.003a2.18 2.18 0 0 0-.552-2.157 2.176 2.176 0 0 0-1.787-.621l.01-.001-4.152-.787c-.633-.12-1.424-.199-1.923.256a1.072 1.072 0 0 0-.094.097l-.001.002a2.184 2.184 0 0 0-2.297.505 2.158 2.158 0 0 0-.637 1.535v.009c0 .211.029.416.087.613-.431.091-.803.3-1.093.591-.395.392-.64.935-.64 1.536v.006c0 .211.029.417.087.614a2.158 2.158 0 0 0-1.095.591 2.16 2.16 0 0 0-.639 1.536v.008c0 .447.133.873.381 1.233a2.18 2.18 0 0 0-1.477 2.065c0 .602.244 1.148.638 1.543l.102.101-2.095 2.091a2.08 2.08 0 0 0-.896-.2c-.58 0-1.105.234-1.485.614L.672 21.686c-.379.377-.613.9-.613 1.477v.008c0 .563.218 1.09.613 1.485l1.389 1.387a.628.628 0 1 0 .889-.889l-1.389-1.387a.831.831 0 0 1-.245-.59v-.005c0-.225.087-.436.244-.593l1.113-1.109a.837.837 0 0 1 .594-.245c.16 0 .309.044.436.121l-.004-.002a.642.642 0 0 0 .256.221l.004.002 6.38 6.371a.63.63 0 0 0 .3.305l.004.002a.832.832 0 0 1 .209.555.83.83 0 0 1-.245.594l-1.111 1.11a.845.845 0 0 1-1.19.001l-1.389-1.389a.629.629 0 0 0-.89.89l1.389 1.39a2.105 2.105 0 0 0 2.968 0l1.113-1.111c.395-.395.613-.923.613-1.485 0-.401-.111-.784-.319-1.115l2.365-2.363c.271-.279 1.023-.227 1.75-.177.517.036 1.093.076 1.656.011l2.583 2.58c-.162.29-.257.635-.257 1.003v.004c0 .562.218 1.089.613 1.484l1.113 1.111c.378.378.9.613 1.477.613h.014c.577 0 1.1-.234 1.478-.613l6.747-6.737c.395-.395.613-.923.613-1.485s-.218-1.089-.614-1.485zM14.626 6.465l2.731.517-1.634 1.633c-.253-.121-.6-.347-.98-.711-.52-.497-.892-1.073-.927-1.431v-.001a.741.741 0 0 1-.002-.049V6.41v.001c.082-.02.3-.043.812.055zm-3.191.513a.925.925 0 0 1 1.178-.109l-.003-.002c.204.856.934 1.632 1.263 1.947.243.233 1.025.931 1.813 1.123a.915.915 0 0 1 .165.527v.006c0 .506-.41.916-.916.916h-.007a.913.913 0 0 1-.653-.269h-.001v-.001l-2.839-2.833a.914.914 0 0 1-.269-.648V7.63c0-.247.095-.479.269-.652zM9.791 9.725c.173-.173.405-.269.653-.269s.481.096.655.27l2.285 2.281c.36.36.36.947.001 1.307-.174.173-.407.269-.656.269s-.481-.095-.655-.268l-2.285-2.284a.913.913 0 0 1-.27-.649v-.004c0-.247.096-.478.271-.652zm-1.648 2.746a.918.918 0 0 1 .654-.269c.247 0 .477.094.649.264l1.74 1.739c.173.173.269.405.269.652s-.095.479-.27.652c-.173.173-.405.269-.653.269s-.481-.095-.655-.269l-.631-.629v-.001l-1.103-1.101a.913.913 0 0 1-.27-.65v-.004c0-.247.096-.48.27-.653zM7.046 15.77c.174-.174.407-.27.655-.27s.481.096.655.269l.631.631c.173.173.269.404.269.651s-.096.479-.271.653c-.173.173-.405.269-.653.269s-.48-.095-.655-.27l-.085-.085-.546-.543a.92.92 0 0 1 0-1.306zm12.827 7.153a.626.626 0 0 0-.89 0l-.56.559c-.532.533-1.497.465-2.429.401-1.013-.071-2.06-.143-2.737.553l-2.319 2.315-5.797-5.789 2.051-2.049c.323.201.715.32 1.135.32h.005c.585 0 1.133-.227 1.543-.637.413-.411.64-.959.64-1.544l-.001-.016h.016a2.173 2.173 0 0 0 2.183-2.179l-.001-.016h.024a2.175 2.175 0 0 0 2.175-2.175v-.023.001h.017a2.171 2.171 0 0 0 2.181-2.171v-.01.001c0-.409-.111-.799-.318-1.137l1.798-1.798a.92.92 0 0 1 .523-.259l.005-.001a.922.922 0 0 1 .783 1.566l-1.184 1.181a.63.63 0 0 0 .89.891l.633-.633a.924.924 0 0 1 1.306.003.915.915 0 0 1 .269.652.914.914 0 0 1-.271.653l-.551.552-.631.628a.63.63 0 0 0 .889.892l.633-.631c.173-.173.405-.269.653-.269s.481.096.655.271c.173.173.269.404.269.651s-.095.479-.27.653l-1.098 1.098a.629.629 0 0 0 .89.89l.539-.539.009-.008c.173-.173.405-.269.653-.269s.48.095.654.27c.36.359.36.945 0 1.305l-.547.547h-.001l-.001.001-.869.867a.63.63 0 0 0 .89.891l.425-.424 2.036 2.033-5.797 5.791-2.077-2.075c.145-.093.283-.203.413-.333l.56-.559a.627.627 0 0 0 .001-.89zm10.568.78-6.747 6.738a.832.832 0 0 1-.59.244h-.005a.836.836 0 0 1-.595-.245l-1.112-1.111a.83.83 0 0 1-.245-.589v-.004c0-.225.087-.435.245-.593l6.747-6.737a.832.832 0 0 1 .594-.245c.227 0 .437.087.595.245l1.112 1.109c.158.158.245.369.245.594s-.087.437-.245.594zM7.587 3.535a.626.626 0 0 0 .889-.001.626.626 0 0 0 0-.89L6.181.355a.629.629 0 1 0-.889.891l2.293 2.289zm16.27.185h.001a.627.627 0 0 0 .445-.185l2.292-2.289a.63.63 0 0 0-.891-.891l-2.292 2.289a.627.627 0 0 0 .444 1.074z"/><path d="M3.927 27.075a.629.629 0 0 0 .007.89l.002.002a.624.624 0 0 0 .889-.009.631.631 0 0 0-.899-.883zm17.486-5.058a.629.629 0 1 0-.287-1.189.63.63 0 0 0 .286 1.19h.001z"/></symbol><symbol id="icon-winner" viewBox="0 0 32 32"><path d="M18.939 3.849a.625.625 0 0 0-.298 1.215l.004.001c4.973 1.219 8.604 5.638 8.604 10.904v.033V16c0 6.203-5.047 11.25-11.25 11.25S4.749 22.203 4.749 16v-.031c0-5.267 3.631-9.685 8.526-10.889l.077-.016a.626.626 0 0 0-.297-1.214l.004-.001a12.601 12.601 0 0 0-6.818 4.338l-.019.024A12.37 12.37 0 0 0 3.499 16c0 6.893 5.607 12.5 12.5 12.5s12.5-5.607 12.5-12.5c0-2.863-.942-5.556-2.723-7.789a12.582 12.582 0 0 0-6.751-4.344l-.087-.018z"/><path d="m31.623 14.497-.731-1.364.122-1.687a3.185 3.185 0 0 0-1.15-2.82l-.006-.004-1.213-.993-.477-1.439a3.226 3.226 0 0 0-2.164-2.305l-.023-.006-1.498-.453L23.336 2.1A3.195 3.195 0 0 0 20.574.989l.013-.001-1.555.155-1.529-.767C17.068.139 16.55-.001 16-.001s-1.068.139-1.52.385l.017-.008-1.365.731-1.687-.122a3.184 3.184 0 0 0-2.819 1.149l-.004.006-.994 1.213-1.438.478a3.225 3.225 0 0 0-2.305 2.164l-.006.023-.453 1.497-1.327 1.148a3.192 3.192 0 0 0-1.11 2.762l-.001-.014.155 1.555-.767 1.529c-.237.435-.377.953-.377 1.504s.14 1.068.385 1.52l-.008-.017.731 1.364-.122 1.687a3.185 3.185 0 0 0 1.15 2.82l.006.004 1.213.993.478 1.439a3.225 3.225 0 0 0 2.163 2.305l.023.006 1.498.453 1.147 1.326a3.195 3.195 0 0 0 2.763 1.111l-.013.001 1.555-.155 1.529.767c.435.237.953.376 1.503.376s1.068-.139 1.52-.384l-.017.008 1.365-.731 1.687.122a3.184 3.184 0 0 0 2.819-1.149l.004-.006.994-1.213 1.439-.478a3.225 3.225 0 0 0 2.305-2.163l.006-.023.453-1.498 1.327-1.147a3.195 3.195 0 0 0 1.111-2.763l.001.014-.155-1.555.767-1.529c.237-.435.377-.953.377-1.504s-.14-1.069-.385-1.52l.008.017zm-1.106 2.424-.005.01-.002.005-.852 1.698a.615.615 0 0 0-.063.344v-.003l.173 1.735a1.943 1.943 0 0 1-.679 1.674l-.003.002-1.467 1.269a.622.622 0 0 0-.188.288l-.001.004-.505 1.672a1.967 1.967 0 0 1-1.413 1.335l-.013.003a.43.43 0 0 0-.06.017l.004-.001-1.636.543a.623.623 0 0 0-.286.196l-.001.001-1.109 1.354a1.945 1.945 0 0 1-1.766.7l.01.001-1.879-.136a.624.624 0 0 0-.344.073l.003-.002-1.523.817a1.92 1.92 0 0 1-.914.229c-.344 0-.666-.089-.946-.246l.01.005-1.697-.851a.615.615 0 0 0-.345-.063h.003l-1.734.173a1.946 1.946 0 0 1-1.675-.679l-.002-.003-1.269-1.467a.624.624 0 0 0-.288-.189l-.004-.001-1.671-.505a1.967 1.967 0 0 1-1.335-1.414l-.003-.013a.556.556 0 0 0-.017-.06l.001.004-.543-1.636a.623.623 0 0 0-.196-.286l-.001-.001-1.355-1.109a1.943 1.943 0 0 1-.699-1.764l-.001.01.135-1.879a.593.593 0 0 0-.074-.343l.002.003-.816-1.523a1.92 1.92 0 0 1-.229-.915c0-.343.089-.666.245-.945l-.005.01.852-1.698a.615.615 0 0 0 .063-.344v.003l-.173-1.735a1.944 1.944 0 0 1 .679-1.673l.003-.002 1.467-1.27a.632.632 0 0 0 .188-.287l.001-.004.505-1.672a1.968 1.968 0 0 1 1.414-1.335l.013-.003a.556.556 0 0 0 .06-.017l-.004.001 1.635-.543a.623.623 0 0 0 .286-.196l.001-.001 1.109-1.354a1.944 1.944 0 0 1 1.765-.699l-.01-.001 1.879.135a.621.621 0 0 0 .343-.073l-.003.002 1.523-.817a1.92 1.92 0 0 1 .914-.229c.344 0 .666.089.946.246l-.01-.005 1.697.851a.626.626 0 0 0 .343.063l1.734-.173a1.946 1.946 0 0 1 1.675.679l.002.003 1.269 1.467a.624.624 0 0 0 .288.189l.004.001 1.671.505a1.968 1.968 0 0 1 1.335 1.414l.003.013a.556.556 0 0 0 .017.06l-.001-.004.543 1.636a.623.623 0 0 0 .196.286l.001.001 1.355 1.109a1.943 1.943 0 0 1 .699 1.764l.001-.01-.135 1.879a.593.593 0 0 0 .074.343l-.002-.003.816 1.523a1.94 1.94 0 0 1-.003 1.835z"/><path d="M13.287 12.595a.624.624 0 0 0-.564-.357H9.42a.625.625 0 0 0-.625.625v9.46c0 .345.28.625.625.625h3.302a.625.625 0 0 0 .574-.378l.002-.004c.477.067.967.202 1.478.344.769.213 1.563.433 2.388.433h3.608c1.115 0 2.019-.591 2.418-1.582.193-.483.228-.983.115-1.403a2.26 2.26 0 0 0 .515-.69c.269-.55.323-1.168.17-1.688.284-.275.496-.637.607-1.064a2.23 2.23 0 0 0 .006-1.15l.003.016a1.884 1.884 0 0 0 .359-2.994 1.948 1.948 0 0 0-1.342-.533h-5.098c-.387-.485-.507-1.143-.287-1.672.451-1.087.423-2.007-.091-2.982-.381-.725-1.407-1.446-2.27-1.323-.521.075-.899.443-1.009.986a3.49 3.49 0 0 0-.051.527v.004c-.026.493-.061 1.168-.487 1.983-.288.553-.384 1.121-.469 1.622-.122.718-.181 1.064-.575 1.197zm-3.241.892h2.052v8.21h-2.051v-8.21zm5.049-1.88c.073-.431.148-.875.345-1.253.551-1.056.598-1.957.626-2.496.007-.143.015-.279.029-.347V7.51c.217.003.75.295.948.671.343.649.353 1.17.043 1.92-.281.676-.26 1.46.018 2.158a.625.625 0 0 0 .087 1.244h6.421c.191 0 .367.067.494.189a.635.635 0 0 1 .196.46v.017-.001c0 .335-.307.625-.671.633l-1.609.035a.625.625 0 0 0 .013 1.25h.014l1.34-.029c.044.124.067.36-.025.631-.078.23-.288.616-.817.616a.626.626 0 0 0-.001 1.25h.001c.095 0 .188-.006.279-.017.007.177-.029.384-.127.583-.114.235-.341.514-.77.514a.626.626 0 0 0-.001 1.25h.001c.065 0 .129-.003.192-.009a1.179 1.179 0 0 1-.097.442l.003-.008c-.098.236-.417.785-1.253.785h-3.608c-.655 0-1.335-.188-2.054-.387-.573-.159-1.16-.321-1.763-.393v-7.451c1.407-.255 1.601-1.395 1.747-2.253zM16 4.75a.626.626 0 0 0 .001-1.25H16a.625.625 0 0 0 0 1.25z"/></symbol><symbol id="icon-heart" viewBox="0 0 32 32"><path d="M23.467.984A8.67 8.67 0 0 0 16 5.316C14.487 2.709 11.709.984 8.527.984A8.61 8.61 0 0 0-.084 9.595v.006c0 4.608 2.759 9.96 6.135 14.153 1.689 2.099 3.537 3.912 5.28 5.201 1.738 1.287 3.385 2.062 4.668 2.062s2.93-.775 4.668-2.062c1.742-1.289 3.591-3.102 5.28-5.201 3.377-4.194 6.135-9.546 6.135-14.154A8.627 8.627 0 0 0 23.465.983zM1.15 9.6v-.001a7.38 7.38 0 0 1 14.256-2.682l.017.05h.001a.617.617 0 0 0 1.151.004l.001-.004c1.09-2.8 3.765-4.749 6.895-4.749a7.379 7.379 0 0 1 7.379 7.379V9.6c0 4.359-2.719 9.407-5.948 13.372-1.613 1.98-3.351 3.687-4.932 4.896-.791.605-1.541 1.085-2.216 1.413-.677.329-1.272.503-1.754.503s-1.077-.173-1.753-.503c-.676-.328-1.427-.808-2.217-1.413-1.582-1.209-3.319-2.915-4.932-4.895C3.869 19.008 1.15 13.96 1.15 9.601z"/><path d="M11.65 12.267a.617.617 0 1 0 1.234 0 2.75 2.75 0 1 0-5.5 0 .617.617 0 1 0 1.234 0 1.517 1.517 0 1 1 3.034 0zm8.987 3.693-.004.004-.013.009-.044.035a5.03 5.03 0 0 0-.618.611l-.006.007c-.341.407-.669.945-.669 1.507 0 .556.327 1.095.669 1.503.192.227.396.431.616.616l.008.006.06.048h.001a.618.618 0 1 1-.742.986 5.675 5.675 0 0 1-1.424-1.65l-.015-.028a4.019 4.019 0 0 1-2.33.737l-.134-.002h.006a4.027 4.027 0 0 1-2.467-.744l.012.008a5.691 5.691 0 0 1-1.428 1.669l-.012.009-.001.001a.617.617 0 0 1-.742-.986l.002-.001.001-.001c.023-.017.042-.033.061-.049l-.001.001a5.1 5.1 0 0 0 .618-.611l.006-.007c.341-.407.669-.945.669-1.507 0-.556-.327-1.094-.669-1.502a5.12 5.12 0 0 0-.616-.616l-.008-.006-.06-.049h-.001a.618.618 0 0 1-.123-.865l-.001.002 9.397.863zm0 0a.618.618 0 1 0-.742-.986l.002-.001.74.987zm1.23-6.443a2.754 2.754 0 0 0-2.75 2.75.617.617 0 1 0 1.234 0 1.517 1.517 0 1 1 3.034 0 .617.617 0 1 0 1.234 0 2.754 2.754 0 0 0-2.75-2.75z"/></symbol><symbol id="icon-logo-partner" viewBox="0 0 25 32"><path fill="#fff" d="M9.801 25.968c-.025-.123-.075-.196-.15-.196-.1 0-.15.074-.15.221-.025.147-.025.319-.025.54v.27c0 .221 0 .417.025.564s.075.245.15.245c.1 0 .15-.074.175-.221s.025-.343.025-.589h.599c0 .417-.025.736-.1 1.006-.075.245-.299.368-.673.368s-.648-.147-.798-.441a2.24 2.24 0 0 1-.225-1.03c0-.417.075-.76.249-1.055.15-.294.424-.441.798-.417.05 0 .1.024.125.024s.075.025.075.025c.025.025.05.025.05.025.025 0 .025.024.025.024.025 0 .025 0 .05-.024.025 0 .05-.025.075-.049h.349v1.177h-.574a6.036 6.036 0 0 0-.082-.506l.007.041zm1.746-.123-.075.074v1.569c.025.049.05.073.075.098s.075.025.15.025v.515H10.5v-.515c.05 0 .1 0 .15-.025s.05-.049.075-.074v-1.618l-.05-.049c-.025 0-.05-.024-.075-.024h-.05v-.564h1.197v.54c-.125 0-.175.025-.199.049zm.723 1.766h.05c.025 0 .025 0 .05-.025.025 0 .025-.025.05-.025 0 0 0-.024.025-.024l.025-.025v-1.667h-.075c-.05.025-.075.049-.1.074s-.025.049-.05.074v.54h-.374v-1.226h1.945v1.226h-.374v-.466c0-.049-.025-.074-.025-.123a.332.332 0 0 0-.075-.098h-.075c-.025 0-.025.025-.025.049v1.643c0 .024.025.024.025.024s0 .025.025.025l.025.025s.025 0 .05.024h.05c.025 0 .05 0 .05.025v.515H12.22v-.54c.025-.024.025-.024.05-.024zm2.669-1.815c0 .025 0 .025 0 0-.025.025-.025.025-.05.025l-.025.024c0 .025-.025.025-.025.049v.049l.175.294.1-.294v-.025s0-.024-.025-.024c0 0 0-.025-.025-.025l-.025-.025v-.539h.873v.539h-.025c-.05 0-.1 0-.15.025a.199.199 0 0 0-.099.097l-.001.001-.349.981v.564c.025.049.05.074.075.098s.075.024.1.049h.05v.515h-1.172v-.515h.05c.05-.025.075-.025.1-.049s.05-.049.05-.098v-.564l-.474-1.005v-.049l-.075-.074c-.025-.025-.05-.025-.1-.025v-.54h1.072v.54h-.025zm-7.931 3.36c.15.049.299.147.399.294.05.049.075.123.1.196s.05.147.05.221v.049c0 .074 0 .123-.025.196s-.05.123-.075.172c-.025.025-.05.049-.05.074l-.05.049c0 .025-.025.025-.05.049s-.05.025-.075.049a.725.725 0 0 1 .374.54v.294c0 .049-.025.098-.025.147-.025.098-.1.196-.175.27s-.175.123-.249.172c-.05 0-.1.025-.15.025s-.1 0-.15.025H5.56v-.515h.05c.025 0 .05-.025.1-.025l.075-.074V29.77c-.025-.025-.05-.074-.075-.074-.025-.024-.075-.024-.125-.049v-.54h.973c.125 0 .299.025.449.049zm-.199.858c0-.147-.025-.221-.075-.245s-.1-.049-.15-.025h-.05l-.025.564h.05c.05 0 .1 0 .15-.025.075-.049.1-.123.1-.27zm0 1.103c0-.147-.025-.221-.05-.27s-.075-.049-.125-.049h-.099l-.025.638h.05c.05 0 .1 0 .15-.025.075-.024.1-.123.1-.294zm2.942.196c0 .025 0 .049.025.074s.05.024.075.049h.05v.515H8.804v-.54h.05c.025 0 .05-.024.075-.049s.025-.049.025-.074l-.05-.196H8.58l-.05.196c0 .025.025.049.05.074s.075.025.125.025v.515h-.973v-.54h.075c.025 0 .05-.024.05-.024.025 0 .025-.025.05-.049 0 0 0-.024.025-.024 0 0 0-.025.025-.025l.449-2.207h.823l.524 2.28zm-1.172-.563h.274l-.15-.589-.125.589zm3.741-1.129c-.025 0-.025.025-.05.025s-.025 0-.05.025c-.025 0-.05.024-.075.024s-.05.025-.05.049c-.025.025-.075.074-.125.147l-.199.294.424 1.177c0 .025.025.025.025.049l.025.025.025.025s.025.024.05.024c0 0 .025 0 .025.025 0 0 .025 0 .025.024l-.025.515h-1.072v-.515c.025 0 .025-.024.05-.024 0 0 .025-.025.025-.049v-.049l-.15-.49-.025.025-.05.049-.05.049-.025.025v.294c0 .025 0 .074.025.074l.05.049s.025 0 .025.025c0 0 .025 0 .025.024v.491h-1.097v-.491s.025 0 .025-.024c0 0 .025 0 .025-.025.025 0 .025-.024.05-.024l.025-.025.025-.025.025-.024v-1.545c0-.049-.025-.074-.05-.098s-.05-.024-.075-.049h-.05v-.515h1.097v.54c-.025.024-.075.024-.1.049s-.025.049-.025.074v.466c.125-.172.225-.294.25-.392.05-.098.05-.147.05-.172v-.588l.998-.025v.49h-.025zm2.12.589h-.424v-.466c0-.049-.025-.073-.075-.098s-.125-.025-.175-.025c-.075 0-.125.025-.199.049-.05.024-.1.073-.1.123v.441c.075 0 .125 0 .125-.049.025-.025.025-.074.025-.172h.225v.956h-.225c0-.098 0-.147-.025-.172s-.075-.025-.125-.025v.54c0 .049.025.074.1.098.05.025.125.049.199.049s.125-.025.199-.049a.134.134 0 0 0 .075-.12v-.591h.424v1.275h-1.946v-.54c.05 0 .1 0 .15-.049a.135.135 0 0 0 .075-.121v-1.498c0-.049-.025-.074-.05-.098a.353.353 0 0 0-.15-.049v-.539h1.945v1.128h-.05zm1.596-1.054c.15.049.299.147.399.294.05.049.075.123.1.196s.05.147.05.221v.049c0 .074 0 .123-.025.196a1.176 1.176 0 0 1-.078.178l.003-.006c0 .025 0 .025-.025.049s-.025.049-.05.074l-.025.025-.025.024c-.025.025-.05.049-.075.049-.025.024-.05.024-.05.024.125.025.224.098.25.196.05.098.075.196.075.294v.441c0 .049 0 .073.025.073s.05 0 .05-.024c0-.025.025-.025.025-.049v-.049h.075v.221c0 .025 0 .049-.025.098-.025.074-.075.147-.149.221s-.175.098-.349.098c-.199 0-.324-.073-.349-.196-.05-.123-.05-.27-.075-.417v-.098c0-.098 0-.221-.025-.319a.51.51 0 0 0-.1-.27l-.025-.025s-.025 0-.025-.025h-.05v.711c.025.049.05.074.075.074.025.025.075.025.125.025v.515h-1.197v-.515h.05c.025 0 .05-.025.1-.025l.075-.074v-1.594c-.025-.024-.05-.074-.075-.074-.025-.024-.075-.024-.125-.049v-.539h.972c.125-.049.3-.025.474 0zm-.224.858c0-.147-.025-.221-.075-.245s-.1-.049-.15-.025h-.05l-.025.564h.05c.05 0 .1 0 .15-.025.075-.049.1-.123.1-.27zm2.194-.393c0 .025 0 .025 0 0-.025.025-.025.025-.05.025l-.025.025c0 .024-.025.024-.025.049v.049l.175.294.1-.294v-.025s0-.024-.025-.024c0 0 0-.025-.025-.025l-.025-.024v-.54h.873v.54h-.025c-.025 0 0 0 0 0-.05 0-.1 0-.15.024a.191.191 0 0 0-.099.097v.001l-.349.981v.564c.025.049.05.073.075.098s.075.025.1.049h.05V32h-1.172v-.515h.05c.05-.024.075-.024.1-.049s.05-.049.05-.098v-.564l-.474-1.005v-.049l-.075-.074c-.025-.025-.05-.025-.1-.025v-.539h1.072v.539h-.025zM1.272 20.352v-2.329h.798v.294h-.449v.687h.399v.294h-.399v.735h.449v.319h-.798zm1.047-.637v-.196h.349v.245c0 .123 0 .221.025.27s.075.074.125.074.1-.025.125-.074c.025-.049.025-.122.025-.221s-.025-.172-.05-.245-.1-.147-.175-.221l-.174-.172c-.075-.098-.15-.196-.175-.294a.661.661 0 0 1-.075-.308v-.012.001c0-.196.05-.343.125-.417.075-.098.199-.147.399-.147.175 0 .299.049.374.172.075.098.1.27.1.466v.147h-.324v-.147c0-.123 0-.196-.025-.245s-.05-.074-.125-.074a.196.196 0 0 0-.125.049c-.025.049-.025.098-.025.172s0 .123.05.172c.025.049.075.098.125.172l.199.196c.1.098.175.221.224.319s.075.221.075.343c0 .221-.025.368-.1.491-.075.098-.2.147-.399.147-.175 0-.324-.049-.399-.172-.125-.098-.15-.27-.15-.49zm1.372.637v-2.011h-.274v-.294h.898v.294h-.274v2.011h-.349zm.823 0v-2.33h.524c.175 0 .299.049.374.147s.125.245.125.441v1.055c0 .245-.05.417-.125.515s-.199.172-.399.172h-.499zm.374-.269h.1c.075 0 .125-.025.15-.074s.05-.123.05-.221v-1.152c0-.123-.025-.196-.05-.245s-.075-.074-.15-.074h-.1v1.766zm14.864.269v-1.888c-.025.024-.075.073-.125.073-.05.025-.1.025-.175.025v-.27c.075 0 .15-.049.224-.098s.125-.123.15-.196h.274v2.354h-.349zm1.546-.122c-.075.098-.199.172-.374.172s-.299-.049-.374-.147a.717.717 0 0 1-.125-.441v-.123h.349v.049c0 .147 0 .245.025.294s.05.074.1.074.075 0 .1-.025c0-.025.025-.049.025-.074v-.539a.5.5 0 0 1-.224.049c-.15 0-.274-.049-.349-.172s-.1-.294-.1-.515v-.074c0-.294.05-.49.15-.588.075-.074.199-.123.349-.123s.274.025.324.098c.075.049.125.147.15.245s.025.245.025.392v.932c.05.196.025.392-.05.515zm-.399-1.03c.1 0 .15-.049.15-.123v-.441c0-.123 0-.196-.025-.245s-.05-.074-.125-.074c-.05 0-.1.025-.125.074s-.025.123-.025.245v.196c0 .123 0 .221.025.27.025.074.075.098.125.098zm1.322 1.177c-.324 0-.474-.147-.474-.466v-.294h.324v.245c0 .098.025.172.075.196.025 0 .05.025.075.025.075 0 .125-.074.125-.221v-.588c0-.074 0-.147-.025-.196s-.05-.074-.1-.074c-.1 0-.15.074-.15.221l-.324-.025v-1.177h.873v.319h-.549v.466c.025-.025.05-.049.1-.074s.1-.025.15-.025c.15 0 .224.049.299.172.05.123.075.319.075.564 0 .27 0 .441-.025.54s-.05.172-.075.221c-.075.123-.199.172-.374.172zm.973-.025v-1.888c-.025.024-.075.073-.125.073-.05.025-.1.025-.175.025v-.27c.075 0 .15-.049.224-.098s.125-.123.15-.196h.274v2.354h-.349zM18.38 2.109c-.474-.221-1.022-.025-1.222.466-.175.441-.05.932.324 1.201l-2.619 4.316a3.189 3.189 0 0 0-.374-.245l.549-5.272h.125c.449-.025.823-.368.898-.858a.989.989 0 0 0-.823-1.079h-.199a.955.955 0 0 0-.898.854v.004c-.05.466.249.907.648 1.03l-1.322 4.806a.728.728 0 0 0-.225-.049c-.025 0-.025 0-.05-.025-.05-.024-.1-.024-.175-.024-.05 0-.075-.025-.125-.025l-.499-5.272h.025a.948.948 0 0 0 .823-.858c.05-.539-.324-1.005-.823-1.054h-.2c-.498.049-.873.539-.823 1.054.05.466.399.809.823.858h.025l-.524 5.272c-.05 0-.075.025-.125.025s-.1.025-.175.025c-.025 0-.025 0-.05.025-.075.024-.15.024-.225.049L9.797 2.527a.973.973 0 0 0 .673-1.03.934.934 0 0 0-.898-.858h-.199c-.499.049-.873.54-.823 1.079.05.491.424.858.898.858h.125l.549 5.272c-.125.074-.249.147-.374.245L7.129 3.777c.349-.27.499-.785.324-1.201-.199-.491-.748-.687-1.222-.466s-.673.809-.474 1.3c.199.49.748.687 1.222.466l2.07 4.806c-.1.123-.175.245-.274.368.524.417.773.638.773.638.225-.343 1.497-.662 2.743-.736 1.222.074 2.519.392 2.743.736 0 0 .249-.221.773-.638-.075-.123-.175-.245-.274-.368l2.07-4.806c.474.245.998.025 1.222-.466s.025-1.079-.449-1.3zm4.315 7.405c-.299.221-.599.515-.973.907a2.946 2.946 0 0 0-.268.311l-.006.008c-.349.392-.648.687-.923.834l-.923-1.177L2.294 23.565l.923 1.177c-.224.196-.549.368-.948.564-.125.074-.249.123-.374.196-.474.245-.848.466-1.122.687-.948.711-.848 1.275-.574 1.618.075.098.25.319.574.343s.673-.123 1.122-.441c.299-.221.623-.539.998-.932.175-.196.324-.368.449-.515a3.72 3.72 0 0 1 .499-.54c.025-.024.05-.049.075-.049l.973 1.226 12.121-9.22 5.187-3.972-.948-1.201c.05-.074.1-.123.175-.196.149-.123.399-.221.648-.343.199-.074.399-.172.623-.294a8.968 8.968 0 0 0 1.172-.711c.449-.343.673-.662.723-.956.05-.319-.125-.515-.199-.613-.225-.343-.748-.589-1.696.122zM2.843 25.845c-.125.172-.274.319-.424.491-.349.368-.648.662-.923.858-.424.319-.599.343-.673.319-.05 0-.075-.024-.125-.098-.15-.196.175-.515.449-.736a5.997 5.997 0 0 1 1.047-.638c.125-.074.249-.123.374-.196.15-.074.324-.147.449-.245-.05.098-.125.172-.175.245zm18.48-12.236L4.988 25.992l-.15-.196 16.311-12.383.175.196zm-.548-.686L4.465 25.306l-1.297-1.643L19.479 11.28l1.297 1.643zm3.217-3.017c0 .074-.075.245-.499.564-.274.196-.623.417-1.073.662l-.598.294c-.1.049-.175.073-.25.123.125-.123.224-.245.349-.368.1-.098.175-.196.274-.319.324-.343.623-.638.873-.834.299-.221.698-.466.848-.245.075.049.075.074.075.123z" style="fill:var(--color1, #fff)"/><path fill="#fff" d="M23.867 26.189a10.066 10.066 0 0 0-1.122-.687c-.125-.074-.249-.123-.374-.196-.399-.196-.723-.368-.948-.564l.923-1.177-6.759-5.15c-.175.147-.324.27-.499.392l6.36 4.855-1.297 1.643-6.809-5.15c-.175.123-.324.27-.474.392l6.908 5.247-.149.196-6.958-5.272c-.125.098-.249.221-.374.343-.025.025-.075.049-.1.098l7.532 5.738.973-1.226c.025.024.05.024.075.049.15.123.324.319.499.54.141.19.288.359.448.514l.001.001c.374.392.698.711.998.932.449.343.823.49 1.122.441.324-.024.474-.245.574-.343.299-.343.399-.907-.549-1.618zm.075 1.226c-.05.073-.075.098-.125.098-.075 0-.249 0-.673-.319-.274-.196-.574-.49-.923-.858a43.29 43.29 0 0 1-.424-.491c-.05-.074-.125-.147-.175-.221.15.073.299.147.449.245.125.049.249.123.374.196.405.211.748.422 1.074.655l-.026-.018c.274.196.598.515.449.711zM9.028 18.71c.075-.049.125-.123.2-.172l.299-.221-.549-.417-.997-.76-4.664-3.531.15-.196 5.686 4.316.599.466.524-.368-.748-.564-.997-.76-4.689-3.58 1.297-1.643 5.686 4.316 1.247.956c.199-.123.374-.221.574-.343l-1.422-1.104-6.185-4.708-.923 1.177c-.274-.147-.574-.441-.923-.834a3.11 3.11 0 0 1-.274-.319c-.349-.368-.673-.687-.973-.907C.998 8.803.475 9.048.225 9.367c-.075.098-.25.319-.2.613.025.319.274.638.723.981.339.254.724.49 1.128.691l.044.02c.163.09.368.189.579.277l.045.017c.274.123.499.221.673.343.075.049.125.123.175.196l-.948 1.201 6.16 4.708.424.294zm-6.235-7.308a3.324 3.324 0 0 1-.612-.303l.014.008c-.449-.245-.823-.466-1.073-.662-.424-.319-.474-.49-.499-.564 0-.049 0-.074.075-.147.149-.196.549.025.848.245.25.196.549.466.873.834.1.098.2.221.274.319.125.123.224.27.349.368-.075 0-.149-.049-.249-.098z" style="fill:var(--color1, #fff)"/></symbol><symbol id="icon-facebook" viewBox="0 0 32 32"><path fill="#ff8126" d="M16 0C7.163 0 0 7.163 0 16s7.163 16 16 16 16-7.163 16-16S24.837 0 16 0zm1.668 16.703v8.705h-3.602v-8.703h-1.799v-3h1.799v-1.801c0-2.447 1.016-3.902 3.902-3.902h2.404v3h-1.503c-1.124 0-1.198.419-1.198 1.202l-.004 1.501h2.721l-.318 3h-2.403z" style="fill:var(--color2, #ff8126)"/></symbol><symbol id="icon-instagram" viewBox="0 0 32 32"><path fill="#ff8126" d="M16 0C7.163 0 0 7.163 0 16s7.163 16 16 16 16-7.163 16-16S24.837 0 16 0zm-3.518 7.518c.91-.042 1.201-.052 3.519-.052h-.003c2.318 0 2.608.01 3.518.052.909.042 1.529.185 2.073.396a4.197 4.197 0 0 1 1.51.983l.001.001a4.2 4.2 0 0 1 .975 1.483l.01.029c.21.543.354 1.163.396 2.071.041.91.052 1.201.052 3.518s-.011 2.608-.052 3.518c-.043.908-.187 1.529-.396 2.071a4.225 4.225 0 0 1-.984 1.511l-.001.001a4.186 4.186 0 0 1-1.482.975l-.029.01c-.543.211-1.164.355-2.072.397-.91.041-1.2.051-3.518.051s-2.608-.01-3.518-.051c-.908-.042-1.529-.186-2.071-.397a4.19 4.19 0 0 1-1.511-.984l-.001-.001a4.183 4.183 0 0 1-.974-1.483l-.01-.029c-.211-.542-.355-1.163-.396-2.071-.042-.91-.052-1.2-.052-3.518s.011-2.608.051-3.519c.041-.908.185-1.528.397-2.071a4.211 4.211 0 0 1 .984-1.511l.001-.001c.416-.423.92-.758 1.483-.974l.029-.01c.542-.211 1.163-.355 2.071-.396z" style="fill:var(--color2, #ff8126)"/><path fill="#ff8126" d="M15.235 9.004h.766c2.278 0 2.548.009 3.448.049.832.038 1.284.177 1.584.294.398.155.683.34.981.638s.483.583.638.981c.117.301.256.752.293 1.584.041.9.05 1.17.05 3.447s-.009 2.548-.05 3.447c-.038.832-.177 1.284-.294 1.584a2.665 2.665 0 0 1-.638.98l-.001.001a2.63 2.63 0 0 1-.98.638c-.301.117-.753.256-1.585.294-.9.041-1.17.05-3.448.05s-2.549-.009-3.449-.05c-.832-.038-1.284-.178-1.584-.294a2.659 2.659 0 0 1-.981-.637l-.001-.001a2.649 2.649 0 0 1-.633-.963l-.006-.018c-.117-.3-.256-.752-.294-1.584-.041-.899-.049-1.17-.049-3.448s.008-2.548.049-3.447c.038-.832.177-1.284.293-1.584a2.64 2.64 0 0 1 .639-.981c.269-.277.597-.494.963-.633l.018-.006c.301-.117.753-.256 1.585-.294.787-.035 1.092-.046 2.683-.048v.002zm5.321 1.417a1.023 1.023 0 1 0 0 2.048 1.023 1.023 0 1 0 0-2.048zM11.619 16a4.382 4.382 0 0 1 8.764 0 4.382 4.382 0 0 1-8.764 0z" style="fill:var(--color2, #ff8126)"/><path fill="#ff8126" d="M16.001 13.156a2.845 2.845 0 0 1 0 5.69 2.845 2.845 0 0 1 0-5.69z" style="fill:var(--color2, #ff8126)"/></symbol><symbol id="icon-twitter" viewBox="0 0 32 32"><path fill="#ff8126" d="M16 0C7.163 0 0 7.163 0 16s7.163 16 16 16 16-7.163 16-16S24.837 0 16 0zm-.445 13.558-.034-.554c-.101-1.435.783-2.746 2.182-3.253.515-.181 1.388-.204 1.959-.046.224.068.649.294.951.498l.549.373.604-.192c.336-.102.783-.271.985-.384.19-.102.358-.158.358-.125 0 .192-.414.847-.761 1.209-.47.508-.336.554.615.214.571-.192.582-.192.47.023-.068.113-.414.508-.784.87-.627.621-.66.689-.66 1.209 0 .802-.38 2.475-.761 3.389-.706 1.717-2.216 3.492-3.727 4.384-2.126 1.254-4.958 1.571-7.342.836-.795-.249-2.16-.882-2.16-.994 0-.034.414-.079.917-.091a6.282 6.282 0 0 0 3.03-.852l-.03.016.604-.362-.694-.237c-.985-.339-1.869-1.119-2.093-1.853-.067-.237-.045-.249.581-.249l.65-.011-.548-.26c-.65-.328-1.243-.882-1.533-1.446-.213-.407-.482-1.435-.403-1.514.022-.034.258.034.526.124.772.283.873.215.425-.26-.839-.859-1.097-2.135-.694-3.344l.19-.543.739.734c1.511 1.481 3.291 2.362 5.327 2.621l.56.068z" style="fill:var(--color2, #ff8126)"/></symbol><symbol id="icon-viber" viewBox="0 0 32 32"><path fill="#ff8126" d="M0 16c0 8.837 7.163 16 16 16s16-7.163 16-16S24.837 0 16 0 0 7.163 0 16zm26.042-.612c-.002 5.244-4.269 9.512-9.515 9.514h-.003a9.463 9.463 0 0 1-4.596-1.183l.049.025-5.044 1.323 1.349-4.93a9.39 9.39 0 0 1-1.269-4.743v-.014.001c.001-5.246 4.269-9.514 9.514-9.514h.024a9.423 9.423 0 0 1 6.705 2.79v.001a9.426 9.426 0 0 1 2.784 6.701v.031-.002z" style="fill:var(--color2, #ff8126)"/><path fill="#ff8126" d="m9.218 22.806 2.993-.785.289.171a7.809 7.809 0 0 0 4.024 1.102h.004c4.358 0 7.906-3.548 7.908-7.908v-.025a7.84 7.84 0 0 0-2.314-5.57 7.831 7.831 0 0 0-5.572-2.319h-.019.001c-4.362 0-7.909 3.547-7.911 7.907v.011c0 1.556.45 3.007 1.228 4.229l-.019-.032.188.299-.799 2.918zm11.777-5.37c.166.08.278.134.326.214.059.099.059.575-.139 1.131-.198.555-1.148 1.061-1.605 1.13-.409.061-.928.087-1.497-.094a13.316 13.316 0 0 1-1.443-.535l.087.034c-2.229-.962-3.735-3.122-4.019-3.531l-.048-.067.006.008-.002-.003c-.126-.168-.969-1.293-.969-2.457 0-1.095.538-1.669.786-1.933l.047-.05c.218-.238.475-.297.634-.297a9.359 9.359 0 0 1 .508.009c.139-.001.311-.002.482.407.066.157.162.391.263.637.204.498.43 1.049.47 1.128.06.119.099.258.02.417l-.034.068c-.06.122-.103.211-.204.329l-.122.146c-.082.1-.163.199-.235.27-.119.118-.243.247-.104.485s.615 1.016 1.323 1.646c.759.677 1.42.964 1.755 1.109.065.028.118.051.157.07.238.119.377.099.515-.059s.594-.694.753-.932.317-.198.535-.119c.218.079 1.387.654 1.625.773l.13.064z" style="fill:var(--color2, #ff8126)"/></symbol><symbol id="icon-messager" viewBox="0 0 32 32"><path fill="#ff8126" d="M0 16c0 8.837 7.163 16 16 16s16-7.163 16-16S24.837 0 16 0 0 7.163 0 16zm9.905 9.576v-3.415C7.766 20.533 6.4 18.054 6.4 15.278c0-4.903 4.26-8.878 9.515-8.878 5.255 0 9.515 3.975 9.515 8.878s-4.259 8.878-9.515 8.878c-.98 0-1.927-.139-2.817-.395l-3.193 1.815z" style="fill:var(--color2, #ff8126)"/><path fill="#ff8126" d="m14.899 12.846-5.132 5.433 4.67-2.563 2.44 2.563 5.103-5.433-4.619 2.517-2.462-2.517z" style="fill:var(--color2, #ff8126)"/></symbol><symbol id="icon-telegram" viewBox="0 0 32 32"><path fill="#ff8126" d="M0 16c0 8.837 7.163 16 16 16s16-7.163 16-16S24.837 0 16 0 0 7.163 0 16zm13.067 7.333.272-4.078 7.419-6.695c.325-.289-.071-.43-.503-.168l-9.156 5.777-3.955-1.234c-.854-.261-.86-.849.192-1.27l15.411-5.943c.704-.32 1.383.169 1.115 1.246l-2.625 12.368c-.183.879-.715 1.09-1.45.684l-3.998-2.954-1.94 1.886c-.215.209-.393.382-.782.382z" style="fill:var(--color2, #ff8126)"/></symbol><symbol id="icon-logo" viewBox="0 0 37 32"><path fill="#ff8126" d="M16.883 7.105 1.762 11.029c-.947.238-1.709 1.06-1.709 1.855L0 19.459c0 .769.763 1.591 1.709 1.829l15.042 3.765c.947.238 2.472.238 3.419-.027l15.12-3.897c.947-.238 1.709-1.06 1.709-1.856l.053-6.575c0-.769-.763-1.591-1.709-1.829L20.301 7.104c-.947-.238-2.472-.238-3.419 0z" style="fill:var(--color2, #ff8126)"/><path fill="#fff" d="M18.434 24.577c-.605 0-1.183-.053-1.604-.159L2.761 21.024c-.999-.238-1.788-1.087-1.788-1.909l.053-5.912c0-.822.789-1.67 1.815-1.935l14.121-3.526a7.657 7.657 0 0 1 1.709-.186c.605 0 1.184.053 1.604.159l14.042 3.367c.999.238 1.788 1.087 1.788 1.909l-.053 5.912c0 .822-.789 1.67-1.814 1.936l-14.121 3.553a7.596 7.596 0 0 1-1.683.185zm.184-16.491c-.578 0-1.157.053-1.578.159L2.945 11.771c-.763.186-1.394.848-1.42 1.405l-.026 5.939c0 .583.631 1.219 1.394 1.405l14.043 3.367c.394.106.92.159 1.499.159s1.157-.053 1.578-.159l14.121-3.526c.763-.185 1.394-.848 1.394-1.405l.053-5.912c0-.583-.631-1.219-1.394-1.405L20.118 8.245c-.394-.106-.92-.159-1.499-.159z" style="fill:var(--color1, #fff)"/><path fill="#fff" d="M14.753 15.801c.184-.027.342-.079.526-.133.395-.132.631-.345.736-.61.053-.159.079-.292.079-.451 0-.371-.184-.663-.579-.848-.316-.159-.736-.238-1.288-.238-.736 0-1.394.132-1.973.371a3.735 3.735 0 0 0-.763.477c-.315.265-.473.583-.473.875 0 .318.158.53.473.61.026 0 .105 0 .105-.053v-.053l-.026-.026c-.053-.053-.105-.079-.131-.106a.443.443 0 0 1-.079-.255v-.01.001c0-.159.105-.371.342-.61.218-.22.469-.406.746-.549l.017-.008a4.31 4.31 0 0 1 1.788-.371c.421 0 .736.053.973.185.263.133.394.318.394.61 0 .106-.026.239-.079.372-.079.212-.237.371-.526.477a2.117 2.117 0 0 1-.736.133h-.237c-.026 0-.053-.027-.079-.027s-.053-.026-.105-.026c-.158-.053-.316-.027-.394.079-.026 0-.053.026-.053.079 0 .132.184.159.342.185.184.027.316.053.394.053.158.053.316.159.421.292s.158.265.158.397a.753.753 0 0 1-.105.398c-.158.292-.368.53-.684.716-.289.186-.605.292-.894.292-.473 0-.841-.238-1.078-.689a9.933 9.933 0 0 0 1.288-1.511c.053-.079.289-.318.631-.663s.578-.557.71-.61c.21-.027.236-.133.236-.212a.23.23 0 0 0-.104-.185l-.001-.001c-.131-.079-.316-.079-.5 0-.237.079-.684.583-1.394 1.511l-.579.769a3.615 3.615 0 0 1-.421.53l-.131-.53c-.079-.239-.184-.345-.342-.345-.053 0-.105 0-.184.026-.158.079-.316.265-.526.61-.184.345-.289.637-.289.875 0 .265.079.424.237.504.184.106.526-.053 1.026-.477.263.424.736.663 1.394.663a2.89 2.89 0 0 0 1.331-.326l-.016.008c.421-.212.71-.477.868-.795.079-.133.105-.292.105-.477a.96.96 0 0 0-.29-.689.617.617 0 0 0-.263-.212zm-4.024 1.75c0-.265.158-.61.447-1.034.026.027.131.133.342.796-.447.451-.631.53-.71.53a.532.532 0 0 1-.079-.292zm16.515-1.591c-.105 0-.21.053-.316.159-.079.106-.158.186-.184.239-.211.212-.526.477-.921.795-.684.531-.815.478-.815.451 0-.079.079-.265.552-.769.578-.636.578-.663.578-.716 0-.079-.026-.212-.289-.212-.105 0-.289.08-.736.663l-.158.239c-.026.026-.079.106-.158.185a2.11 2.11 0 0 1-.447.398c-.263.212-.5.292-.684.292-.158 0-.21-.079-.21-.238 0-.186.131-.451.394-.796l.447-.556v-.027c.026-.053.026-.106-.053-.185-.053-.053-.105-.079-.158-.079s-.079 0-.105.027l-.158.106a.417.417 0 0 1-.21.079c-.105 0-.131-.026-.131-.053l.131-.185c.105-.159.184-.265.184-.372 0-.132-.079-.185-.211-.185-.184 0-.315.212-.421.583a5.954 5.954 0 0 1-.763 1.061c-.158.159-.316.318-.5.477-.316.265-.579.424-.763.424s-.237-.08-.237-.265c0-.106.026-.185.053-.292h.053c.236 0 .526-.106.92-.345.368-.238.579-.477.579-.742 0-.106-.027-.185-.105-.238s-.158-.106-.289-.106c-.315 0-.657.212-1.052.61a2.17 2.17 0 0 0-.5.742 3.286 3.286 0 0 1-.368.318c-.21.159-.394.238-.526.238-.237 0-.421-.238-.526-.742.105.053.236.079.447.079s.473-.079.71-.212c.315-.159.5-.397.552-.663v-.027c0-.106-.053-.212-.158-.318a.47.47 0 0 0-.394-.186c-.184 0-.421.053-.736.185.123-.162.235-.3.351-.435l-.009.011c.447-.556.447-.583.447-.61 0-.079-.053-.159-.263-.159-.079 0-.105 0-.132.027-.211.159-.579.636-1.131 1.484-.105.186-.211.318-.289.477-.71.875-.999 1.06-1.157 1.06-.026 0-.053 0-.079-.106v-.027c0-.106.079-.318.394-.769.395-.61.395-.636.395-.663 0-.053-.026-.079-.079-.132a.238.238 0 0 0-.178-.08h-.033l-.026-.079c-.158-.106-.289-.159-.447-.159-.368 0-.789.238-1.236.663-.447.451-.657.822-.657 1.166 0 .159.079.292.21.397.105.08.237.133.368.133s.316-.106.579-.345l.263-.265v.027c0 .238.105.397.316.477s.474-.027.789-.345c-.027.053-.027.079-.027.106 0 .133.079.239.263.318l.053.027.026-.053c.158-.292.263-.53.342-.636.237.477.526.716.868.716.237 0 .5-.132.842-.371.026-.026.079-.053.105-.079.026.212.158.371.447.451.053.027.105.027.158.027.236 0 .526-.133.868-.371a3.16 3.16 0 0 0 .783-.759l.006-.009c.053-.053.105-.133.158-.212l.421-.53a.415.415 0 0 0 .21.159 3.432 3.432 0 0 0-.237.451 1.404 1.404 0 0 0-.158.61c0 .504.289.61.552.61.236 0 .525-.132.868-.397a.556.556 0 0 0 .131-.106v.053a.34.34 0 0 0 .105.265c.184.212.525.132.999-.239l.736-.583-.158.345a6.275 6.275 0 0 1-.579 1.06c-.263.371-.5.557-.736.557-.131 0-.289-.133-.473-.371l-.105-.132v.185c0 .159.053.318.158.451s.263.212.394.212c.421 0 .868-.345 1.289-1.034.289-.504.473-.875.605-1.113 0-.027.053-.106.289-.451.289-.451.289-.477.289-.504 0-.159-.079-.238-.211-.238zm-7.837.239c.316-.185.579-.291.789-.291.026 0 .053 0 .079.026s.026.027.026.053c0 .185-.158.345-.5.504-.289.159-.552.238-.71.238-.105 0-.158 0-.21-.026.079-.159.263-.345.526-.504zm2.235.504c-.236.159-.447.238-.578.238.131-.212.316-.397.552-.583s.368-.239.42-.239h.105v.027c-.079.212-.237.397-.5.557zm-5.811.848c0-.239.21-.557.631-.955s.736-.583.973-.583c.052 0 .078 0 .078.027l-.631.901c-.5.663-.789.795-.947.795-.053-.026-.105-.026-.105-.185z" style="fill:var(--color1, #fff)"/><path fill="#605656" d="M9.546 5.408c0-.026-.027-.026-.053-.026H9.44l-.211.132-.394-.636.052-.027c.158-.106.263-.212.394-.318.105-.106.184-.238.237-.371s.079-.292.053-.424a1.182 1.182 0 0 0-.187-.481l.003.004a1.142 1.142 0 0 0-.286-.316l-.003-.002a.91.91 0 0 0-.362-.158l-.006-.001a.98.98 0 0 0-.401.001l.006-.001a1.232 1.232 0 0 0-.394.159c-.158.106-.289.185-.421.291s-.289.186-.42.292c-.026 0-.026.027-.026.053v.053l.263.371c.027.027.053.027.079.027l.158-.106L8.81 5.859l-.184.106c-.026 0-.026.027-.026.053v.053l.236.345c0 .027.026.027.053.027h.027l.789-.53c.026-.027.026-.053.026-.08l-.184-.424zM8.021 3.552l.237-.159c.053-.027.131-.053.184-.079h.184c.053 0 .105.026.158.079a.33.33 0 0 1 .131.131l.001.002c.079.106.105.186.105.265s0 .159-.053.212c-.026.08-.079.132-.158.185s-.158.133-.236.186l-.026.027-.526-.849zm5.128.027h-.053l-.263.106-.631-.769a.503.503 0 0 0 .158-.186c.053-.079.079-.186.105-.292s.026-.212.026-.318a.705.705 0 0 0-.079-.318.896.896 0 0 0-.237-.371c-.105-.079-.21-.159-.316-.185-.131-.027-.236-.053-.394-.053-.132 0-.263.053-.395.106-.158.053-.315.132-.473.185-.158.08-.316.133-.473.212-.026 0-.026.027-.026.027v.053l.184.397c.026.027.053.053.079.027l.184-.079.868 2.174-.184.08c-.026 0-.026.026-.026.026v.053l.184.371c0 .026.026.026.053.026h.026l.815-.318c.027 0 .053-.053.027-.08l-.131-.424c0-.026-.027-.026-.027-.026h-.053l-.184.08-.342-.822.184-.079.605.795-.079.027c-.027 0-.027.027-.027.027v.053l.211.371c.026.027.053.053.079.027l.736-.371c.026-.027.053-.053.026-.08l-.131-.424-.026-.027zm-1.736-.822-.053.027-.316-.849.289-.106c.053-.027.131-.053.184-.053s.105 0 .158.027.105.053.131.079c.053.027.079.079.105.159.053.106.053.186.053.265-.026.08-.053.133-.079.186-.053.053-.105.106-.184.133a2.507 2.507 0 0 1-.289.132zm4.418-.291-.316.079c-.026 0-.026.027-.053.027v.053l.079.451-.71.159-.158-.875.631-.159c.027 0 .053-.053.053-.079l-.053-.318c-.053-.053-.053-.053-.053-.079h-.053l-.631.132-.158-.875.684-.185.131.397c0 .026.053.053.079.053l.342-.079c.026 0 .053-.053.053-.079l-.211-.875c0-.027-.053-.053-.079-.053l-1.841.397c-.026 0-.053.053-.053.08l.053.424c0 .026 0 .026.026.053.026 0 .026.026.053 0l.211-.053.447 2.253-.211.053c-.026 0-.026.027-.053.027v.053l.105.424c0 .026.027.053.053.053h.026l1.841-.424c.026 0 .026-.026.053-.026v-.053l-.211-.901c0-.027-.026-.053-.079-.053zM20.065 0h-.999c-.026 0-.053.027-.053.053l-.526 2.015-.289-1.989a.056.056 0 0 0-.053-.053l-1.157-.027c-.026 0-.053.027-.079.053l-.026.424c0 .026.026.053.053.08l.342.027-.053 2.227h-.316c-.026 0-.026 0-.053.027 0 0-.026.026-.026.053v.424c0 .026.026.053.053.079l1.078.053c.027 0 .027 0 .053-.027s.026-.026.026-.053v-.424c0-.026-.026-.053-.053-.053h-.211l.053-1.432.289 1.776c0 .027.026.053.053.053h.447c.026 0 .053-.027.053-.053l.526-1.935-.026 1.564h-.211c-.026 0-.053.027-.079.053l-.026.451c0 .027 0 .027.026.053 0 0 .026.027.053.027l.947.027c.027 0 .027 0 .053-.027 0 0 .026-.027.026-.053v-.451a.056.056 0 0 0-.053-.053h-.158l.079-2.306.237.026c.026 0 .026 0 .053-.026.026 0 .026-.027.026-.053l.027-.451c0-.027 0-.027-.026-.053-.053-.027-.079-.027-.079-.027zm2.419.504-.895-.186c-.026 0-.079.026-.079.053l-.105.424v.053c0 .026.026.026.053.026l.21.027-.447 2.2-.21-.053h-.053c-.026 0-.026.027-.026.053l-.079.424c0 .026.026.079.053.079l.921.186c.026 0 .053-.026.053-.053l.105-.397v-.053c0-.027-.026-.027-.053-.027l-.263-.053.473-2.201.263.053c.026 0 .026 0 .053-.026.026 0 .026-.027.026-.053l.053-.424c0-.027-.027-.053-.053-.053zm3.524 1.67c.027 0 .079 0 .079-.053l.131-.397c0-.027 0-.08-.026-.08l-.868-.318c-.026 0-.079 0-.079.027l-.184.423v.053c0 .027.026.027.026.027l.211.079-.421 1.087c-.026.053-.052.132-.078.212s-.079.159-.105.265c-.053.079-.079.159-.131.238s-.105.132-.158.185a.42.42 0 0 1-.184.106c-.053.026-.131 0-.21-.027-.053-.026-.105-.053-.131-.106s-.053-.106-.053-.159v-.212c0-.079.026-.159.053-.212.026-.079.053-.132.053-.212.026-.079.053-.132.079-.185.079-.238.184-.451.263-.663s.184-.397.263-.61l.211.053h.053c.026 0 .026-.026.026-.026l.105-.398c0-.027 0-.079-.053-.079l-.841-.318c-.026 0-.079 0-.079.027l-.236.424v.053c0 .027.026.027.026.027l.21.079-.236.557c-.079.212-.184.424-.263.636-.026.079-.079.185-.105.318-.026.106-.053.238-.079.345-.027.133-.027.239-.027.345 0 .133.027.239.053.345s.079.212.158.291c.079.08.184.159.316.212s.237.08.342.08h.079c.14-.026.263-.063.381-.111l-.013.005a.824.824 0 0 0 .289-.238l.236-.318c.079-.106.131-.238.184-.371s.105-.239.158-.345l.394-1.113.184.053zm4.129 1.962-.842-.556c-.026-.027-.053-.027-.079 0l-1.525 1.405.815-1.829c.027-.027 0-.053-.026-.08l-.92-.636c-.026-.027-.079 0-.079.027l-.237.345c-.026.027-.026.079.026.079l.263.212-1.262 1.829-.237-.159c-.026 0-.026-.026-.053 0-.026 0-.026.027-.053.027l-.237.344c-.026.027 0 .08.026.08l.868.61c.026 0 .026.027.053 0 .026 0 .026-.026.053-.026l.236-.371c.026-.027 0-.08-.026-.08l-.158-.106.815-1.193-.71 1.644c0 .027 0 .053.026.08l.394.239c.026.026.053 0 .079 0l1.394-1.273-.894 1.299-.184-.132c-.026-.027-.079 0-.079.027l-.263.371c0 .027-.027.027 0 .053 0 .026.026.026.026.053l.789.53h.026c.027 0 .027-.026.053-.026l.236-.371c.026-.027 0-.08-.026-.08l-.131-.106 1.315-1.909.184.132c.026 0 .026.027.053 0 .026 0 .026 0 .053-.026l.263-.371c0-.027.027-.027 0-.053 0 .027-.026.027-.026 0zM11.676 25.929a.91.91 0 0 0-.618-.232.964.964 0 0 0-.203.021l.006-.001a.92.92 0 0 0-.368.159c-.13.077-.242.165-.342.265-.105.106-.211.185-.316.318-.105.106-.184.212-.263.318-.053.079-.132.185-.184.265-.053.106-.131.212-.184.318-.05.098-.095.212-.128.332l-.003.013c-.026.133-.053.239-.053.345s.026.238.079.345a.83.83 0 0 0 .237.292c.026.026.079.053.105.079s.053.026.079.053c0 .106-.026.186-.026.292s0 .238.026.345c0 .027.026.053.053.053l.474-.08c.026 0 .026-.026.053-.026v-.053a.507.507 0 0 1-.053-.212v-.001c0-.053-.027-.132-.027-.185a.504.504 0 0 0 .211-.053c.105-.026.184-.079.263-.132s.158-.106.263-.186c.079-.079.158-.133.237-.212s.131-.159.211-.238a1.54 1.54 0 0 1 .184-.212c.053-.079.131-.185.184-.265.079-.106.131-.212.184-.318s.105-.238.131-.345c.026-.132.053-.238.053-.371s-.027-.238-.079-.345a.416.416 0 0 0-.184-.345zm-2.025 2.227c0-.027 0 0 0 0-.027-.08-.053-.106-.053-.159v-.132c0 .053.026.079.026.132.026.053.026.106.026.159zm.5-.371a1.32 1.32 0 0 0-.108-.299l.003.007c-.053-.079-.079-.159-.158-.212 0-.027.026-.027.026-.053l.079-.079c.053-.053.105-.133.158-.212s.131-.159.21-.238c.079-.08.158-.159.237-.212a.622.622 0 0 1 .237-.159c.158-.079.289-.079.447.026.053.053.079.08.105.159.026.053.026.132 0 .212s-.026.159-.079.238c-.026.079-.079.159-.131.238a2.159 2.159 0 0 0-.125.2l-.006.012c-.053.079-.079.132-.132.159-.053.053-.105.132-.184.212s-.131.159-.21.238c-.07.068-.148.129-.231.182l-.006.003c-.053.027-.079.053-.131.08.026-.079.026-.132.026-.185 0-.106 0-.212-.026-.318zm5.022.106-.841-.371c-.026-.026-.079 0-.079.027l-.211.397v.053c0 .027.026.027.026.027l.211.079-.474 1.06c-.026.053-.053.133-.105.212-.026.079-.079.159-.131.238l-.158.239a.614.614 0 0 1-.182.184l-.002.001a.283.283 0 0 1-.184.08h-.001c-.053.027-.131 0-.21-.027-.053-.027-.105-.053-.131-.106s-.053-.106-.053-.159v-.212c0-.079.026-.159.053-.212.026-.079.053-.132.079-.212s.053-.132.079-.185l.316-.637c.105-.185.184-.397.289-.583l.21.079h.053c.026 0 .026-.027.026-.027l.131-.397c0-.027 0-.08-.026-.08l-.842-.371c-.026-.026-.079 0-.079.027l-.21.397v.053c0 .027.026.027.026.027l.21.079c-.079.185-.184.371-.263.557-.105.212-.211.424-.29.636-.052.079-.078.185-.131.292s-.079.238-.105.345c-.026.132-.053.238-.053.345 0 .133 0 .238.026.345s.079.212.158.292c.079.079.184.159.289.212.131.053.263.079.368.079h.026a.852.852 0 0 0 .368-.106c.122-.065.226-.145.315-.238.079-.106.184-.212.237-.318.079-.106.131-.238.21-.345.053-.133.105-.239.158-.345l.473-1.087.184.079c.026 0 .079 0 .079-.053l.131-.397c.053.079.053.026.026.026zm2.262 3.526-.237-.053-.053-2.492.158.026c.026 0 .053-.026.079-.053l.079-.371v-.053c0-.027-.026-.027-.053-.027l-1.157-.185h-.053c-.026 0-.026.027-.026.053l-.053.397c0 .027.026.08.053.08l.158.027-.894 2.227-.237-.053h-.053c-.026 0-.026.026-.026.053l-.053.451c0 .027.026.079.053.079l.92.186c.026 0 .079-.026.079-.053l.105-.397v-.053c0-.027-.026-.027-.053-.027l-.184-.053.158-.451.5.079v.557l-.21-.053h-.053c-.026 0-.026.027-.026.053l-.053.451c0 .026.026.079.053.079l.921.185h.026c.026 0 .053-.026.053-.053l.105-.424c.026-.079.026-.106-.026-.133zm-.736-2.201v.981l-.316-.053.316-.928zm3.892 1.644h-.395c-.026 0-.026 0-.053.026 0 0-.026.027-.026.053v.451h-.631l-.053-2.253.263-.027c.026 0 .053-.026.053-.079v-.424c0-.026-.026-.053-.079-.053l-.999.027c-.026 0-.053.027-.053.079v.424c0 .026 0 .026.026.053 0 0 .026.026.053.026h.21l.053 2.253h-.21c-.026 0-.026 0-.053.027 0 .026-.026.026-.026.053l.026.451c0 .026.027.053.053.053l1.814-.027c.027 0 .053-.026.053-.079v-.954c.026-.027 0-.079-.026-.079zm2.34.08c-.026 0-.026-.027-.053 0l-.237.053-.447-2.201.21-.053c.026 0 .026-.027.026-.027v-.053l-.131-.397c0-.027-.053-.053-.079-.053l-.894.185c-.026 0-.053.053-.053.08l.079.451c0 .027.027.027.027.053h.053l.21-.053.473 2.201-.21.053c-.026 0-.026.027-.053.027v.053l.105.424c0 .026.026.053.053.053h.026l.921-.238c.026 0 .053-.053.053-.079l-.079-.424c.026-.027 0-.053 0-.053zm2.656-.955h-.053l-.236.106-.868-2.147.236-.106.237.504c0 .027.026.027.053.027h.053l.316-.185c.026-.027.053-.053.026-.08l-.447-.901c-.026-.027-.053-.053-.079-.027l-1.709.795c-.026.027-.053.053-.026.079l.368.928c0 .027.026.027.026.027h.053l.342-.159c.026 0 .026-.027.026-.027v-.053l-.21-.477.263-.133.894 2.094-.184.079c-.026 0-.026.027-.026.027v.053l.184.397c0 .027.026.027.053.027h.026l.868-.397c.026-.027.053-.053.026-.08l-.131-.397c-.053.026-.079.026-.079.026zm3.077-1.352-.211-.345c0-.027-.026-.027-.053-.027h-.053l-.211.159-.394-.556-.395-1.67.184-.159c.026-.027.026-.053 0-.106l-.289-.345c-.026-.027-.053-.027-.079 0l-.763.557c-.026.026-.026.053-.026.079l.236.371c0 .026.027.026.053.026h.053l.158-.106.289 1.007-.815-.636.131-.133c.026 0 .026-.027.026-.053s0-.027-.026-.053l-.263-.318c-.027-.027-.053-.027-.079 0l-.763.557c-.026.026-.026.053-.026.079l.237.371c0 .027.026.027.053.027h.053l.184-.159 1.394.928.394.557-.158.132c-.026 0-.026.027-.026.053v.053l.263.345c0 .027.027.027.053.027h.053l.763-.583c.079-.026.079-.053.053-.079z" style="fill:var(--color3, #605656)"/><path fill="#fff" d="M4.155 19.99c.053 0 .105 0 .158.026v-6.204c.105-.159.237-.451.237-.769 0-.504-.316-.901-.316-.901s-.316.397-.316.901c0 .318.131.61.237.769v.53a1.628 1.628 0 0 0-.289-.557c-.342-.371-.841-.451-.841-.451s.026.504.368.875c.263.292.631.397.763.424v.663c-.053-.159-.131-.397-.289-.557-.342-.371-.841-.451-.841-.451s.026.504.368.875c.263.291.631.397.763.424v.663c-.053-.159-.131-.397-.289-.557-.342-.371-.841-.451-.841-.451s.026.504.368.875c.263.292.631.397.763.424v.663c-.053-.159-.131-.397-.289-.557-.342-.371-.841-.451-.841-.451s.026.504.368.875c.263.291.631.397.763.424v.663c-.053-.159-.131-.397-.289-.557-.342-.371-.841-.451-.841-.451s.026.504.368.875c.263.292.631.397.763.424v.636c-.053-.159-.131-.398-.289-.557-.342-.371-.841-.451-.841-.451s.026.504.368.875c.263.292.631.397.763.424v.61z" style="fill:var(--color1, #fff)"/><path fill="#fff" d="M5.154 18.983c.342-.371.368-.875.368-.875s-.5.079-.842.451c-.342.371-.368.875-.368.875s.526-.106.842-.451zm0-.955c.342-.371.368-.875.368-.875s-.5.079-.842.451c-.342.371-.368.875-.368.875s.526-.106.842-.451zm0-.954c.342-.371.368-.875.368-.875s-.5.079-.842.451c-.342.371-.368.875-.368.875s.526-.106.842-.451zm0-.955c.342-.371.368-.875.368-.875s-.5.079-.842.451c-.342.371-.368.875-.368.875s.526-.079.842-.451zm0-.954c.342-.371.368-.875.368-.875s-.5.079-.842.451c-.342.371-.368.875-.368.875s.526-.079.842-.451zm0-.955c.342-.371.368-.875.368-.875s-.5.079-.842.451c-.342.371-.368.875-.368.875s.526-.079.842-.451zm27.507 5.78c.053 0 .105 0 .158.026v-6.204c.105-.159.236-.451.236-.769 0-.504-.315-.901-.315-.901s-.316.397-.316.901c0 .318.131.61.236.769v.53a1.628 1.628 0 0 0-.289-.557c-.342-.371-.842-.451-.842-.451s.026.504.368.875c.263.292.631.397.763.424v.663c-.053-.159-.131-.397-.289-.557-.342-.371-.842-.451-.842-.451s.026.504.368.875c.263.291.631.397.763.424v.663c-.053-.159-.131-.397-.289-.557-.342-.371-.842-.451-.842-.451s.026.504.368.875c.263.292.631.397.763.424v.663c-.053-.159-.131-.397-.289-.557-.342-.371-.842-.451-.842-.451s.026.504.368.875c.263.291.631.397.763.424v.663c-.053-.159-.131-.397-.289-.557-.342-.371-.842-.451-.842-.451s.026.504.368.875c.263.292.631.397.763.424v.636c-.053-.159-.131-.398-.289-.557-.342-.371-.842-.451-.842-.451s.026.504.368.875c.263.292.631.397.763.424v.61z" style="fill:var(--color1, #fff)"/><path fill="#fff" d="M33.66 18.983c.342-.371.368-.875.368-.875s-.5.079-.841.451c-.342.371-.368.875-.368.875s.526-.106.841-.451zm0-.955c.342-.371.368-.875.368-.875s-.5.079-.841.451c-.342.371-.368.875-.368.875s.526-.106.841-.451zm0-.954c.342-.371.368-.875.368-.875s-.5.079-.841.451c-.342.371-.368.875-.368.875s.526-.106.841-.451zm0-.955c.342-.371.368-.875.368-.875s-.5.079-.841.451c-.342.371-.368.875-.368.875s.526-.079.841-.451zm0-.954c.342-.371.368-.875.368-.875s-.5.079-.841.451c-.342.371-.368.875-.368.875s.526-.079.841-.451zm0-.955c.342-.371.368-.875.368-.875s-.5.079-.841.451c-.342.371-.368.875-.368.875s.526-.079.841-.451z" style="fill:var(--color1, #fff)"/></symbol></defs></svg>